<?xml version="1.0" encoding="iso-8859-1"?>
<!-- Generator: Adobe Illustrator 19.0.0, SVG Export Plug-In . SVG Version: 6.00 Build 0)  -->
<svg version="1.1" id="Capa_1" xmlns="http://www.w3.org/2000/svg" xmlns:xlink="http://www.w3.org/1999/xlink" x="0px" y="0px"
	 viewBox="0 0 409.574 409.574" style="enable-background:new 0 0 409.574 409.574;" xml:space="preserve">
<ellipse style="fill:#EBF0F3;" cx="204.787" cy="382.259" rx="121.876" ry="27.315"/>
<path style="fill:#00aa00;" d="M346.865,142.077c0,107.188-142.077,245.322-142.077,245.322S62.71,251.402,62.71,142.077
	C62.71,63.61,126.32,0,204.787,0S346.865,63.61,346.865,142.077z"/>
<circle style="fill:#E1E6E9;" cx="204.787" cy="142.08" r="115.732"/>
<ellipse style="fill:#EBF0F3;" cx="204.787" cy="146.662" rx="115.732" ry="111.15"/>
<polygon style="fill:#E56353;" points="272.854,74.011 191.097,128.387 218.478,155.768 "/>
<polygon style="fill:#27A2DB;" points="191.097,128.387 136.721,210.144 218.478,155.768 "/>
<ellipse style="fill:#FCD462;" cx="204.782" cy="142.069" rx="14.454" ry="14.454"/>
<path style="fill:#F6C358;" d="M216.306,142.026c-0.385,2.277-1.433,4.462-3.19,6.219c-4.5,4.5-11.797,4.5-16.297,0
	c-2.237-2.237-3.357-5.166-3.37-8.098c-0.602,3.555,0.446,7.336,3.19,10.079c4.501,4.501,11.797,4.5,16.297,0
	C215.199,147.963,216.319,144.992,216.306,142.026z"/>
<g>
</g>
<g>
</g>
<g>
</g>
<g>
</g>
<g>
</g>
<g>
</g>
<g>
</g>
<g>
</g>
<g>
</g>
<g>
</g>
<g>
</g>
<g>
</g>
<g>
</g>
<g>
</g>
<g>
</g>
</svg>
