<svg xmlns="http://www.w3.org/2000/svg" viewBox="0 0 409.574 409.574"><ellipse ry="27.315" rx="121.876" cy="382.259" cx="204.787"/><path d="M346.865 142.077c0 107.188-142.077 245.322-142.077 245.322S62.71 251.402 62.71 142.077C62.71 63.61 126.32 0 204.787 0s142.078 63.61 142.078 142.077z" fill="green"/><circle r="115.732" cy="142.08" cx="204.787"/><ellipse ry="111.15" rx="115.732" cy="146.662" cx="204.787"/><path fill="red" d="M272.854 74.011l-81.757 54.376 27.381 27.381z"/><path fill="#0ff" d="M191.097 128.387l-54.376 81.757 81.757-54.376z"/><circle cy="142.069" cx="204.782" fill="#ff0" r="14.454"/><path d="M216.306 142.026a11.438 11.438 0 01-3.19 6.219c-4.5 4.5-11.797 4.5-16.297 0a11.484 11.484 0 01-3.37-8.098c-.602 3.555.446 7.336 3.19 10.079 4.501 4.501 11.797 4.5 16.297 0a11.485 11.485 0 003.37-8.2z" fill="#ff0"/></svg>