<svg xmlns="http://www.w3.org/2000/svg" height="65.326" width="267.504" data-name="Group 1280"><path fill="#0a66c2" d="M0 9.587h9.993v36.4h18.5v9.222H0z" data-name="Path 2514"/><path fill="#0a66c2" d="M32.911 24.276h9.6v30.916h-9.6zm4.8-15.37a5.569 5.569 0 11-5.57 5.569 5.569 5.569 0 015.57-5.569" data-name="Path 2515"/><path fill="#0a66c2" d="M82.669 9.58h9.6v27.265l10.88-12.583h11.77l-12.6 14.313 12.335 16.63h-12.066L92.397 39.923h-.126v15.28h-9.6z" data-name="Path 2516"/><path fill="#0a66c2" d="M47.834 24.279h9.219v4.225h.131a10.085 10.085 0 019.09-4.994c9.735 0 11.527 6.405 11.527 14.726V55.19h-9.6V40.159c0-3.588-.066-8.2-5-8.2-4.99 0-5.76 3.907-5.76 7.939v15.288h-9.6z" data-name="Path 2517"/><path fill="#0a66c2" d="M135.136 36.138a5.756 5.756 0 00-5.894-5.89 6.406 6.406 0 00-6.784 5.89zm8.132 13.7a16.909 16.909 0 01-13.128 6.151c-9.6 0-17.286-6.408-17.286-16.331s7.685-16.328 17.286-16.328c8.973 0 14.6 6.4 14.6 16.328v3.01h-22.282a7.171 7.171 0 007.235 6.019 8.193 8.193 0 006.851-3.778z" data-name="Path 2518"/><path fill="#0a66c2" d="M164.75 31.749c-4.8 0-7.68 3.205-7.68 7.875s2.879 7.878 7.68 7.878 7.687-3.2 7.687-7.878-2.881-7.875-7.687-7.875m16.525 23.437h-8.838v-4.1h-.131a12.071 12.071 0 01-9.544 4.868c-9.224 0-15.3-6.657-15.3-16.071 0-8.646 5.377-16.585 14.216-16.585 3.973 0 7.684 1.087 9.861 4.1h.126V9.577h9.609z" data-name="Path 2519"/><path fill="#0a66c2" d="M246.084 55.204h-9.6V40.17c0-3.585-.064-8.2-4.993-8.2-5 0-5.765 3.906-5.765 7.939v15.294h-9.6V24.287h9.216v4.225h.129a10.1 10.1 0 019.093-4.994c9.73 0 11.524 6.4 11.524 14.726zm-40.79-35.143a5.571 5.571 0 115.57-5.572 5.571 5.571 0 01-5.57 5.572m4.8 35.143h-9.61V24.287h9.61zM250.87.004h-55.21a4.728 4.728 0 00-4.781 4.67v55.439a4.731 4.731 0 004.781 4.675h55.21a4.741 4.741 0 004.8-4.675V4.67a4.738 4.738 0 00-4.8-4.67" data-name="Path 2520"/><path d="M200.678 39.812v-15.39h9.333v30.781h-9.333zm15.49 0v-15.39h9.135v2.085c0 1.147.07 2.085.156 2.085s.301-.246.48-.546c.566-.955 2.359-2.585 3.528-3.208 2.261-1.205 5.095-1.523 8.233-.922 4.782.915 7.318 4.076 8.05 10.033.118.958.207 5.897.207 11.468v9.786h-9.304l-.08-9.383c-.09-10.389-.14-10.845-1.398-12.37-.888-1.078-1.91-1.473-3.815-1.476-2.681-.004-4.344 1.098-5.184 3.434-.337.938-.375 1.856-.432 10.412l-.062 9.383h-9.514zm-11.907-19.984c-1.841-.345-3.72-2.05-4.196-3.805-.124-.46-.182-1.391-.128-2.07.223-2.804 2.527-4.873 5.428-4.873 3.523 0 6.15 3.469 5.172 6.831-.795 2.736-3.515 4.433-6.276 3.917z" fill="#fff" paint-order="stroke fill markers"/></svg>