<svg xmlns="http://www.w3.org/2000/svg" fill="none" height="150" width="400"><path fill="#fff" d="M111.369 81.287a7.136 7.136 0 01-1.868 2.256c-.792.64-1.717 1.16-2.774 1.56a13.92 13.92 0 01-3.189.809 10.747 10.747 0 01-3.113-.038c-1.007-.162-1.863-.495-2.567-.996l.793-8.235c.73-.25 1.647-.508 2.755-.771a25.214 25.214 0 013.415-.564c1.17-.113 2.277-.1 3.322.038 1.043.137 1.867.47 2.471.996.327.3.604.627.831.978.226.35.364.714.415 1.09.125 1.053-.038 2.012-.491 2.877zm-11.51-17.542c.528-.326 1.163-.614 1.905-.865a11.88 11.88 0 012.284-.527 9.94 9.94 0 012.283-.037c.742.075 1.397.282 1.962.62.566.339.988.828 1.264 1.466.277.64.353 1.449.227 2.426-.101.777-.409 1.436-.925 1.974-.515.54-1.145.99-1.887 1.354-.742.364-1.528.652-2.358.865-.831.213-1.63.37-2.397.47a23.4 23.4 0 01-2 .188c-.566.025-.938.038-1.113.038l.754-7.972zm15.586 12.22a7.72 7.72 0 00-1.623-2.312 6.081 6.081 0 00-2.415-1.447c.402-.326.799-.84 1.189-1.542.389-.701.723-1.467.999-2.294a12.6 12.6 0 00.567-2.5c.1-.84.062-1.561-.113-2.163-.429-1.504-1.101-2.682-2.02-3.535a7.487 7.487 0 00-3.207-1.767c-1.221-.325-2.567-.395-4.038-.207a21.313 21.313 0 00-4.51 1.11c0-.126.012-.257.038-.395.024-.137.037-.282.037-.433 0-.376-.189-.701-.566-.977a2.62 2.62 0 00-1.302-.49 2.379 2.379 0 00-1.434.32c-.466.264-.787.747-.962 1.448-.202 2.256-.403 4.6-.604 7.032a891.778 891.778 0 01-.642 7.37c-.226 2.482-.453 4.945-.68 7.39a930.173 930.173 0 01-.678 7.05c.075.676.264 1.203.566 1.58.302.376.654.601 1.056.676.403.075.825.006 1.265-.207.44-.212.824-.583 1.151-1.11 1.006.552 2.138.91 3.396 1.073a15.16 15.16 0 003.831 0 17.937 17.937 0 003.83-.922 16.22 16.22 0 003.435-1.691c1.031-.678 1.899-1.449 2.604-2.313.704-.866 1.169-1.8 1.396-2.802a9.839 9.839 0 00.189-3.083 8.908 8.908 0 00-.755-2.858zm36.816 19.854a26.275 26.275 0 01-.585 2.613 17.102 17.102 0 01-.887 2.501c-.339.752-.717 1.359-1.131 1.823-.416.464-.863.659-1.341.584-.377-.051-.616-.289-.716-.715-.101-.427-.101-.953 0-1.579.1-.627.295-1.336.584-2.125a18.439 18.439 0 012.472-4.588c.529-.714 1.082-1.31 1.661-1.786.126.15.182.526.17 1.129a15.454 15.454 0 01-.227 2.142zm12.794-16.32a1.891 1.891 0 00-1.246-.64c-.49-.05-.987.226-1.49.828a8.87 8.87 0 01-1.246 1.73 15.899 15.899 0 01-1.566 1.504c-.541.45-1.057.84-1.547 1.165-.491.327-.875.565-1.151.715a23.214 23.214 0 01-.17-2.595c-.013-.927.006-1.867.057-2.82.075-1.353.232-2.72.471-4.099a26.718 26.718 0 011.038-4.061c0-.701-.164-1.272-.491-1.71-.327-.44-.723-.715-1.188-.828-.466-.113-.944-.05-1.434.188-.491.239-.912.671-1.265 1.297-.301.828-.648 1.755-1.037 2.783a50.376 50.376 0 01-1.321 3.14 31.66 31.66 0 01-1.642 3.102 16.294 16.294 0 01-1.982 2.67c-.716.777-1.497 1.385-2.339 1.824a5.243 5.243 0 01-2.736.583c-.454-.126-.781-.464-.982-1.016-.201-.55-.32-1.24-.358-2.068-.038-.827 0-1.736.113-2.726.114-.99.264-1.974.453-2.952s.397-1.905.623-2.782c.226-.878.44-1.618.641-2.22.302-.726.302-1.334 0-1.823a2.186 2.186 0 00-1.245-.978c-.528-.163-1.082-.156-1.661.02-.578.175-.994.563-1.245 1.164a29.212 29.212 0 00-1.17 3.46 35.834 35.834 0 00-.849 3.967 29.83 29.83 0 00-.359 4.062c-.001.087.003.17.002.257-.548 1.457-1.071 2.559-1.568 3.296-.641.953-1.365 1.367-2.17 1.24-.353-.15-.585-.5-.697-1.052-.115-.551-.152-1.228-.115-2.03.039-.802.133-1.711.284-2.727.151-1.015.339-2.068.565-3.158.227-1.091.466-2.187.718-3.29.251-1.103.477-2.144.68-3.122-.026-.877-.284-1.547-.775-2.012-.49-.463-1.176-.645-2.056-.545-.604.251-1.051.577-1.34.978-.29.4-.522.915-.698 1.541-.101.327-.252.978-.453 1.956a86.84 86.84 0 01-.774 3.365 71.17 71.17 0 01-1.113 3.968 28.49 28.49 0 01-1.434 3.741c-.529 1.116-1.107 2.012-1.736 2.689-.629.676-1.308.953-2.038.827-.403-.075-.66-.489-.773-1.24-.114-.753-.133-1.68-.057-2.783.075-1.103.226-2.313.453-3.629.226-1.316.458-2.563.698-3.742.239-1.178.459-2.219.66-3.12.201-.903.34-1.505.415-1.805 0-.728-.164-1.31-.49-1.75-.328-.437-.724-.714-1.189-.827-.466-.112-.944-.05-1.434.188-.491.239-.912.672-1.265 1.297a61.834 61.834 0 01-.49 2.351c-.202.89-.396 1.805-.585 2.745-.188.94-.365 1.861-.528 2.764a35.783 35.783 0 00-.359 2.37c-.05.525-.107 1.171-.17 1.935a29.604 29.604 0 00-.094 2.426c0 .853.062 1.698.189 2.538.125.84.352 1.611.679 2.312a4.55 4.55 0 001.378 1.73c.59.451 1.339.702 2.245.753.93.05 1.742-.019 2.434-.207a5.915 5.915 0 001.887-.885 8.282 8.282 0 001.548-1.428 24.54 24.54 0 001.377-1.805c.428.953.981 1.692 1.66 2.219.68.526 1.397.84 2.152.94.754.1 1.522-.006 2.302-.32.779-.313 1.484-.846 2.113-1.598.414-.461.805-.986 1.172-1.565.155.271.321.533.507.775.617.803 1.454 1.354 2.511 1.655 1.131.3 2.238.351 3.32.15 1.082-.2 2.114-.564 3.095-1.09a14.614 14.614 0 002.736-1.9 17.15 17.15 0 002.208-2.312 36.368 36.368 0 00-.038 1.636c0 .514-.013 1.071-.038 1.673a21.407 21.407 0 00-3.566 3.159 25.185 25.185 0 00-2.944 3.93 21.043 21.043 0 00-1.981 4.23c-.478 1.43-.711 2.764-.698 4.005.012 1.241.308 2.325.886 3.252.579.928 1.523 1.592 2.831 1.993 1.359.427 2.553.438 3.586.038 1.031-.401 1.93-1.066 2.698-1.993.767-.928 1.396-2.049 1.887-3.366.49-1.316.88-2.688 1.17-4.117a29.41 29.41 0 00.547-4.211c.075-1.38.075-2.609 0-3.686 2.163-.902 3.937-2.043 5.321-3.422 1.384-1.378 2.528-2.832 3.434-4.362.277-.376.371-.827.284-1.353a2.622 2.622 0 00-.642-1.354zm47.605-2.406a18.43 18.43 0 01.34-1.823c.151-.64.34-1.26.566-1.862.226-.601.49-1.121.793-1.56.302-.439.622-.752.962-.94.34-.188.685-.17 1.038.056.377.226.609.702.698 1.428.088.729 0 1.505-.264 2.332-.265.828-.736 1.605-1.416 2.332-.678.727-1.597 1.203-2.754 1.428-.051-.35-.038-.814.037-1.39zm13.077 1.542a2.151 2.151 0 00-1.189-.037c-.377.1-.617.363-.717.79a11.234 11.234 0 01-.963 2.462c-.44.84-.981 1.636-1.622 2.388a12.09 12.09 0 01-2.17 1.993 8.165 8.165 0 01-2.528 1.24c-.882.277-1.611.308-2.189.095a2.747 2.747 0 01-1.378-1.09c-.339-.514-.585-1.135-.736-1.862a13.154 13.154 0 01-.264-2.256c1.434.1 2.711-.156 3.831-.771a9.046 9.046 0 002.849-2.444 11.082 11.082 0 001.773-3.422c.402-1.266.629-2.526.68-3.78.025-1.178-.151-2.174-.528-2.989-.378-.814-.888-1.448-1.529-1.899a4.462 4.462 0 00-2.208-.79c-.83-.075-1.673.038-2.528.34a6.159 6.159 0 00-2.623 1.71 10.69 10.69 0 00-1.793 2.745 17.375 17.375 0 00-1.132 3.365 30.41 30.41 0 00-.604 3.554 35.48 35.48 0 00-.195 3.013l-.163.371a22.55 22.55 0 01-1.359 2.614c-.516.852-1.088 1.567-1.717 2.143-.629.577-1.283.778-1.962.602-.403-.1-.623-.564-.661-1.391-.037-.828.006-1.855.132-3.084.126-1.228.271-2.557.434-3.986a35.97 35.97 0 00.245-4.099 8.49 8.49 0 00-.641-3.252c-.428-1.04-1.013-1.905-1.755-2.595a5.562 5.562 0 00-2.585-1.372c-.981-.226-2.038-.076-3.17.45-1.133.527-2.032 1.267-2.698 2.22a27.566 27.566 0 00-1.831 3.008 8.968 8.968 0 00-.887-2.238 7.204 7.204 0 00-1.434-1.805 6.48 6.48 0 00-1.905-1.203 5.842 5.842 0 00-2.228-.432c-.754 0-1.452.144-2.094.432a7.316 7.316 0 00-1.755 1.11 9.755 9.755 0 00-1.434 1.522 17.788 17.788 0 00-1.132 1.673 35.067 35.067 0 00-.17-1.71c-.063-.49-.176-.903-.34-1.241a1.736 1.736 0 00-.698-.771c-.302-.175-.729-.263-1.282-.263-.278 0-.555.056-.831.169-.277.113-.523.27-.736.47a1.985 1.985 0 00-.49.733c-.114.288-.145.62-.095.997.025.276.095.607.208.996.113.389.22.897.321 1.523.1.627.182 1.385.245 2.275.062.89.081 1.98.056 3.272a61.352 61.352 0 01-.283 4.53 105.9 105.9 0 01-.773 6.017c-.051.526.15.953.604 1.279a3.06 3.06 0 001.547.564c.578.05 1.126-.05 1.641-.3.516-.252.812-.69.887-1.317.076-1.178.22-2.431.434-3.76.214-1.329.478-2.645.793-3.949a41.37 41.37 0 011.076-3.723c.402-1.178.849-2.218 1.339-3.12.491-.903 1-1.624 1.529-2.163.528-.539 1.081-.808 1.66-.808.705 0 1.251.319 1.642.958.389.64.666 1.462.83 2.463.164 1.003.239 2.1.227 3.291a50.825 50.825 0 01-.151 3.44 59.435 59.435 0 01-.303 2.953c-.113.864-.194 1.46-.244 1.786 0 .576.22 1.033.66 1.372.44.338.93.54 1.472.602a2.495 2.495 0 001.528-.301c.478-.264.755-.708.83-1.335a56 56 0 011.038-5.433c.44-1.818.943-3.447 1.51-4.889.566-1.441 1.194-2.62 1.887-3.535.692-.914 1.427-1.372 2.208-1.372.402 0 .71.276.924.827.213.552.321 1.303.321 2.256 0 .702-.057 1.423-.17 2.163a62.39 62.39 0 01-.396 2.293c-.151.79-.283 1.598-.397 2.426a19.173 19.173 0 00-.169 2.594c0 .627.063 1.354.188 2.181.126.827.365 1.611.717 2.35a5.48 5.48 0 001.454 1.88c.616.514 1.402.771 2.358.771 1.434 0 2.704-.307 3.812-.92a9.538 9.538 0 002.849-2.407c.041-.052.079-.108.119-.159.061.146.114.302.183.44.541 1.104 1.277 1.956 2.208 2.558.93.601 2.025.933 3.283.996 1.258.062 2.629-.17 4.114-.696 1.106-.4 2.069-.902 2.886-1.504a10.766 10.766 0 002.208-2.2c.655-.864 1.252-1.861 1.793-2.989a50.714 50.714 0 001.641-3.873c.101-.4.007-.758-.282-1.072a2.341 2.341 0 00-1.057-.658zm20.511-4.195c-.126.74-.296 1.556-.509 2.445a30.79 30.79 0 01-.812 2.764c-.327.953-.73 1.812-1.207 2.576-.479.765-1.026 1.373-1.642 1.824-.617.451-1.327.64-2.133.564-.402-.05-.711-.326-.924-.828-.214-.5-.327-1.14-.34-1.917a14.41 14.41 0 01.208-2.557c.151-.927.383-1.837.698-2.727.314-.889.698-1.71 1.151-2.463.453-.751.975-1.334 1.566-1.748a3.12 3.12 0 011.944-.583c.704.025 1.459.376 2.264 1.053-.051.326-.138.859-.264 1.598zm13.416 2.878c-.39-.2-.792-.244-1.208-.132-.414.113-.711.496-.886 1.147-.101.703-.327 1.53-.679 2.482a15.887 15.887 0 01-1.302 2.707c-.517.853-1.108 1.561-1.774 2.125-.667.564-1.378.821-2.132.77-.63-.05-1.07-.369-1.321-.958-.253-.59-.384-1.328-.397-2.219-.013-.889.076-1.892.264-3.008a51.49 51.49 0 01.679-3.328 107.8 107.8 0 01.812-3.177c.277-1.015.503-1.874.68-2.576.201-.627.138-1.16-.189-1.598a2.728 2.728 0 00-1.226-.94 2.772 2.772 0 00-1.492-.15c-.503.087-.83.357-.981.808-1.485-1.279-2.912-1.968-4.283-2.068a6.26 6.26 0 00-3.793.902c-1.158.702-2.183 1.717-3.076 3.046a19.265 19.265 0 00-2.17 4.343 19.183 19.183 0 00-1.037 4.795c-.139 1.63-.032 3.115.32 4.456.353 1.34.975 2.438 1.869 3.29.892.852 2.106 1.279 3.641 1.279.68 0 1.334-.138 1.963-.414a9.793 9.793 0 001.736-.978c.528-.376.993-.77 1.396-1.184.402-.414.717-.758.944-1.035.175.903.465 1.668.868 2.294a6.08 6.08 0 001.377 1.542c.515.4 1.057.695 1.623.884a5.196 5.196 0 001.641.282c1.183 0 2.289-.401 3.322-1.204 1.031-.801 1.956-1.786 2.774-2.952a18.813 18.813 0 002.018-3.685c.529-1.29.881-2.438 1.057-3.44.176-.377.145-.771-.094-1.185a2.307 2.307 0 00-.944-.921zm67.931 20.759c-.214.852-.548 1.573-1.001 2.162-.452.589-1.018.897-1.698.922-.427.025-.754-.201-.981-.677-.226-.477-.383-1.09-.471-1.842a19.285 19.285 0 01-.114-2.52 55.9 55.9 0 01.34-5.264c.088-.778.157-1.379.207-1.805.855.1 1.567.47 2.132 1.109a6.637 6.637 0 011.303 2.275c.302.877.477 1.824.528 2.839.05 1.015-.032 1.949-.245 2.801zm-13.662 0c-.213.852-.547 1.573-1 2.162-.452.589-1.019.897-1.698.922-.428.025-.755-.201-.981-.677-.227-.477-.384-1.09-.472-1.842a19.296 19.296 0 01-.113-2.52c.012-.928.05-1.843.113-2.745.062-.902.138-1.743.227-2.52a253.7 253.7 0 01.207-1.804c.855.1 1.566.47 2.132 1.109.566.64 1 1.397 1.302 2.275.302.877.478 1.824.529 2.839.05 1.015-.032 1.949-.246 2.801zM299.914 76.72a11.257 11.257 0 01-.171 1.598c-.088.464-.207.758-.358.884-.277-.151-.617-.539-1.019-1.166a7.972 7.972 0 01-.944-2.125 5.917 5.917 0 01-.207-2.331c.087-.765.484-1.36 1.188-1.786.277-.15.516-.095.718.169.201.263.364.645.49 1.147s.214 1.078.264 1.73c.051.652.063 1.278.039 1.88zm-3.341 7.502a6.68 6.68 0 01-1.302 1.071 5.974 5.974 0 01-1.471.677c-.504.15-.957.188-1.359.113-1.133-.225-2.001-.715-2.604-1.467-.604-.752-.988-1.635-1.151-2.65-.164-1.016-.145-2.1.057-3.253.2-1.153.54-2.225 1.018-3.215.478-.99 1.057-1.843 1.736-2.557.679-.715 1.421-1.16 2.227-1.335a12.988 12.988 0 00-.302 3.967c.1 1.366.428 2.65.981 3.854.352.728.774 1.391 1.264 1.993a6.894 6.894 0 001.793 1.542 4.905 4.905 0 01-.887 1.26zm41.759-7.126a18.15 18.15 0 01.339-1.824c.151-.64.34-1.26.566-1.861a7.254 7.254 0 01.793-1.56c.302-.44.622-.753.962-.941.34-.188.685-.17 1.038.056.377.226.61.703.698 1.43.088.727 0 1.503-.264 2.33-.264.828-.736 1.605-1.415 2.332-.679.728-1.598 1.203-2.755 1.429-.051-.35-.038-.814.038-1.391zm15.209 0a18.15 18.15 0 01.339-1.824c.151-.64.34-1.26.566-1.861a7.254 7.254 0 01.793-1.56c.302-.44.623-.753.962-.941.34-.188.686-.17 1.038.056.377.226.61.703.698 1.43.088.727 0 1.503-.264 2.33-.264.828-.736 1.605-1.415 2.332-.679.728-1.598 1.203-2.755 1.429-.051-.35-.038-.814.038-1.391zm14.133 2.2a2.337 2.337 0 00-1.057-.659 2.147 2.147 0 00-1.189-.037c-.377.1-.616.364-.717.79a11.162 11.162 0 01-.962 2.462c-.44.84-.981 1.636-1.622 2.388a12.157 12.157 0 01-2.17 1.993 8.17 8.17 0 01-2.529 1.24c-.881.278-1.611.309-2.189.095a2.749 2.749 0 01-1.378-1.09c-.339-.514-.584-1.134-.736-1.862a13.242 13.242 0 01-.264-2.256c1.435.1 2.712-.156 3.831-.77a9.055 9.055 0 002.85-2.445 11.095 11.095 0 001.773-3.422c.402-1.266.629-2.525.679-3.779.025-1.178-.151-2.175-.528-2.99-.377-.814-.887-1.447-1.528-1.898a4.465 4.465 0 00-2.209-.79c-.829-.076-1.673.038-2.528.338a6.159 6.159 0 00-2.622 1.711 10.707 10.707 0 00-1.793 2.745 17.313 17.313 0 00-1.133 3.366 30.186 30.186 0 00-.603 3.553 35.045 35.045 0 00-.204 3.25 12.9 12.9 0 01-1.929 3.011 12.09 12.09 0 01-2.17 1.993 8.155 8.155 0 01-2.528 1.24c-.882.278-1.611.309-2.189.095a2.749 2.749 0 01-1.378-1.09c-.339-.514-.585-1.134-.735-1.862a13.043 13.043 0 01-.265-2.256c1.434.1 2.711-.156 3.831-.77a9.04 9.04 0 002.849-2.445 11.076 11.076 0 001.774-3.422c.402-1.266.629-2.525.679-3.779.025-1.178-.151-2.175-.528-2.99-.378-.814-.887-1.447-1.529-1.898a4.457 4.457 0 00-2.207-.79c-.831-.076-1.674.038-2.529.338a6.168 6.168 0 00-2.623 1.711 10.678 10.678 0 00-1.792 2.745 17.312 17.312 0 00-1.132 3.366 29.987 29.987 0 00-.604 3.553 36.002 36.002 0 00-.154 1.921c-.244.206-.481.414-.733.617a22.729 22.729 0 01-2.736 1.9 16.959 16.959 0 01-2.982 1.391 11.99 11.99 0 01-3.17.658l2.34-24.969c.151-.526.075-.99-.226-1.39a2.29 2.29 0 00-1.17-.828c-.478-.15-.988-.138-1.529.037-.541.176-.987.578-1.34 1.204-.176.953-.358 2.256-.546 3.91-.19 1.655-.378 3.46-.567 5.415a1157.85 1157.85 0 00-.566 6.054 412.068 412.068 0 00-.49 5.829l-.018.232c-.22.186-.434.373-.662.557a22.571 22.571 0 01-2.736 1.9 16.95 16.95 0 01-2.981 1.391 11.998 11.998 0 01-3.17.658l2.339-24.969c.152-.526.076-.99-.226-1.39a2.29 2.29 0 00-1.17-.828c-.478-.15-.987-.138-1.529.037-.541.176-.987.578-1.339 1.204-.176.953-.359 2.256-.547 3.91-.189 1.655-.378 3.46-.566 5.415-.189 1.956-.378 3.974-.567 6.054a427.479 427.479 0 00-.49 5.829l-.008.105a9.047 9.047 0 01-1.294.478 6.865 6.865 0 01-1.623.245c.101-.452.182-.954.245-1.505.063-.551.114-1.128.152-1.73a22.175 22.175 0 00-.057-3.46 14.147 14.147 0 00-.698-3.064c-.34-.965-.799-1.773-1.377-2.425a4.275 4.275 0 00-2.171-1.316c-.868-.226-1.881-.15-3.038.225-1.711-.225-3.252-.068-4.623.47a10.12 10.12 0 00-3.567 2.35 12.83 12.83 0 00-2.471 3.63 15.547 15.547 0 00-1.284 4.286c-.09.621-.134 1.24-.148 1.857-.389.795-.815 1.49-1.286 2.073-.666.827-1.358 1.504-2.075 2.03a9.443 9.443 0 01-2.132 1.204c-.705.276-1.334.464-1.887.563a5.318 5.318 0 01-1.887.038c-.604-.1-1.158-.388-1.66-.865-.403-.35-.712-.915-.925-1.692-.214-.777-.34-1.66-.377-2.65-.038-.991 0-2.025.113-3.103.113-1.078.307-2.1.585-3.065a12.13 12.13 0 011.056-2.595c.427-.764.931-1.31 1.51-1.635.326.05.528.244.604.582.075.339.094.74.056 1.204-.037.464-.094.94-.169 1.429a8.228 8.228 0 00-.114 1.222c.126.677.371 1.203.736 1.58.364.375.774.595 1.227.657.453.063.899-.043 1.34-.32.439-.275.798-.714 1.075-1.316.025.026.063.038.113.038l.529-4.775c.15-.652.049-1.229-.302-1.73-.353-.501-.818-.79-1.397-.865-.73-1.053-1.717-1.61-2.962-1.673-1.246-.063-2.523.344-3.831 1.222-.805.577-1.516 1.372-2.132 2.387a15.358 15.358 0 00-1.51 3.385 21.502 21.502 0 00-.83 3.93 20.636 20.636 0 00-.095 4.023c.101 1.304.334 2.532.699 3.685.364 1.153.874 2.119 1.529 2.895.553.677 1.181 1.173 1.886 1.486a7.1 7.1 0 002.208.583 8.234 8.234 0 002.284-.094 12.77 12.77 0 002.15-.583c.881-.326 1.787-.74 2.718-1.241a16.756 16.756 0 002.679-1.805c.45-.37.883-.772 1.302-1.204.191.471.404.927.661 1.354a8.004 8.004 0 002.754 2.745c1.157.702 2.579 1.04 4.265 1.016 1.812-.026 3.484-.483 5.019-1.373 1.535-.89 2.793-2.2 3.775-3.93 1.469 0 2.915-.24 4.336-.72l-.035.458c-.1 1.328-.151 2.23-.151 2.707a73.162 73.162 0 01-.169 3.064 71.736 71.736 0 00-.17 3.836 36.752 36.752 0 00.151 4.061c.126 1.366.39 2.607.792 3.723.403 1.115.975 2.062 1.717 2.839.742.777 1.718 1.241 2.926 1.391 1.282.175 2.389-.05 3.32-.677s1.686-1.485 2.265-2.575c.578-1.091.987-2.351 1.226-3.78.239-1.428.308-2.864.208-4.305a16.404 16.404 0 00-.793-4.08c-.428-1.279-1.019-2.332-1.774-3.16.454-.124.994-.362 1.623-.713a31.494 31.494 0 001.944-1.185c.163-.108.325-.221.488-.332a32.016 32.016 0 00-.092 1.893 73.384 73.384 0 01-.17 3.064 72.83 72.83 0 00-.169 3.836 36.996 36.996 0 00.15 4.061c.126 1.366.391 2.607.793 3.723.402 1.115.975 2.062 1.717 2.839.742.777 1.717 1.241 2.925 1.391 1.283.175 2.39-.05 3.321-.677s1.685-1.485 2.264-2.575c.579-1.091.987-2.351 1.227-3.78.239-1.428.307-2.864.207-4.305a16.45 16.45 0 00-.792-4.08c-.428-1.279-1.019-2.332-1.774-3.16.453-.124.994-.362 1.623-.713a31.63 31.63 0 001.944-1.185c.346-.228.69-.463 1.034-.705.13 1.226.408 2.301.852 3.206.541 1.103 1.277 1.955 2.208 2.557.93.601 2.025.934 3.284.996 1.257.062 2.628-.169 4.113-.696 1.107-.4 2.069-.902 2.887-1.503a10.809 10.809 0 002.207-2.2c.038-.05.074-.105.111-.155.116.351.246.688.399 1 .541 1.104 1.277 1.956 2.208 2.558.93.601 2.025.934 3.283.996 1.258.062 2.629-.169 4.114-.696 1.107-.4 2.069-.902 2.887-1.503a10.838 10.838 0 002.208-2.2 17.49 17.49 0 001.792-2.99 50.995 50.995 0 001.642-3.873c.101-.4.006-.758-.283-1.071z" clip-rule="evenodd" fill-rule="evenodd"/><path fill="#0D0C22" d="M70.944 56.646l-.043-.025-.1-.03a.24.24 0 00.143.055zm.63 4.498l-.049.014.049-.014z"/><path fill="#0D0C22" d="M70.962 56.64a.094.094 0 01-.018-.005.08.08 0 000 .012.037.037 0 00.018-.008z"/><path fill="#0D0C22" d="M70.943 56.647h.007v-.004l-.007.004zm.59 4.489l.073-.042.027-.015.025-.026a.417.417 0 00-.125.083zm-.463-4.392l-.07-.068-.049-.026a.2.2 0 00.12.094zm-17.902 43.648a.364.364 0 00-.145.112l.045-.029c.03-.028.074-.061.1-.083zm10.396-2.045c0-.065-.031-.053-.024.176 0-.019.008-.038.011-.055l.013-.121zm-1.079 2.045a.364.364 0 00-.145.112l.045-.029c.03-.028.073-.061.1-.083zm-16.637.486a.302.302 0 00-.153-.071c.046.022.092.044.122.061l.03.01zM44.2 99.3a.488.488 0 00-.06-.19c.024.062.044.124.06.187v.004z"/><path fill="#FD0" d="M55.267 71.085c-2.262.968-4.828 2.066-8.154 2.066a15.435 15.435 0 01-4.117-.568l2.3 23.62a3.945 3.945 0 003.934 3.621s3.262.17 4.35.17c1.172 0 4.684-.17 4.684-.17a3.946 3.946 0 003.933-3.621l2.464-26.1c-1.101-.377-2.212-.626-3.465-.626-2.167-.001-3.912.745-5.93 1.608z"/><path fill="#0D0C22" d="M35.873 61.008l.039.036.025.016a.39.39 0 00-.064-.052z"/><path fill="#fff" d="M75.298 58.828l-.346-1.747c-.311-1.568-1.017-3.05-2.626-3.616-.516-.182-1.101-.26-1.497-.635-.395-.375-.512-.958-.604-1.498-.169-.992-.328-1.985-.502-2.975-.15-.851-.268-1.807-.659-2.588-.508-1.049-1.563-1.662-2.611-2.068-.538-.2-1.086-.37-1.642-.508-2.62-.691-5.375-.945-8.07-1.09a67.757 67.757 0 00-9.706.16c-2.402.22-4.932.484-7.215 1.315-.834.304-1.694.669-2.328 1.313-.779.792-1.033 2.017-.464 3.005.404.701 1.088 1.197 1.814 1.524.945.423 1.933.744 2.946.96 2.82.622 5.742.867 8.623.971 3.194.13 6.393.025 9.572-.312.786-.087 1.57-.19 2.353-.31.923-.142 1.515-1.349 1.243-2.189-.325-1.004-1.2-1.394-2.188-1.242-.146.023-.29.044-.436.065l-.105.015a53.284 53.284 0 01-3.085.302 68.95 68.95 0 01-4.678.16c-1.533 0-3.067-.043-4.597-.143a58.354 58.354 0 01-2.089-.175 49.93 49.93 0 01-.946-.107l-.3-.038-.065-.009-.31-.045a32.724 32.724 0 01-1.9-.339.286.286 0 010-.557h.012a30.847 30.847 0 011.644-.302c.184-.028.368-.057.553-.084h.005c.344-.023.69-.085 1.034-.126a65.783 65.783 0 018.986-.316 60.5 60.5 0 014.36.275c.312.032.622.066.932.104.119.014.238.031.357.046l.241.035c.701.104 1.399.23 2.093.38 1.028.223 2.349.296 2.806 1.423.146.357.212.755.292 1.13l.103.478a.62.62 0 01.212 4.159h-.007l-.148.02-.147.02a90.063 90.063 0 01-4.148.44 98.87 98.87 0 01-8.294.334 97.263 97.263 0 01-11.125-.647c-.4-.047-.8-.098-1.199-.15.31.04-.225-.03-.334-.046a71.387 71.387 0 01-.762-.11c-.853-.129-1.7-.286-2.552-.424-1.03-.17-2.013-.085-2.944.423a4.282 4.282 0 00-1.773 1.838c-.401.83-.521 1.734-.7 2.626-.18.892-.46 1.852-.354 2.767.228 1.976 1.61 3.582 3.597 3.942a104.105 104.105 0 0029.754.986 1.27 1.27 0 011.402 1.392l-.188 1.828a675320.164 675320.164 0 01-2.33 22.713l-.339 3.276c-.108 1.075-.123 2.183-.327 3.246-.322 1.67-1.453 2.696-3.103 3.071a21.64 21.64 0 01-4.606.539c-1.719.009-3.436-.067-5.155-.058-1.835.01-4.082-.159-5.498-1.525-1.244-1.199-1.416-3.077-1.586-4.7-.225-2.15-.45-4.3-.671-6.449l-1.245-11.95-.806-7.733-.04-.383c-.096-.922-.75-1.825-1.779-1.779-.88.04-1.882.788-1.778 1.78l.597 5.732 1.235 11.858c.352 3.368.703 6.737 1.053 10.107.068.645.131 1.292.202 1.938.387 3.527 3.08 5.427 6.416 5.963 1.948.313 3.944.377 5.92.41 2.535.04 5.095.138 7.588-.321 3.694-.678 6.465-3.144 6.86-6.97l.34-3.315 1.124-10.965 1.225-11.942.561-5.474a1.27 1.27 0 011.024-1.117c1.056-.206 2.066-.557 2.817-1.361 1.196-1.28 1.434-2.949 1.011-4.63zm-39.733 1.18c.017-.007-.013.131-.026.196-.002-.098.003-.184.026-.195zm.103.794c.008-.006.034.028.06.068-.04-.037-.065-.065-.06-.068zm.1.133c.037.061.057.1 0 0zm.203.164h.005c0 .006.01.012.013.018a.125.125 0 00-.019-.018h.001zm35.45-.246c-.38.361-.952.529-1.517.613-6.335.94-12.763 1.416-19.168 1.206-4.584-.157-9.12-.666-13.659-1.307-.444-.063-.926-.144-1.232-.472-.576-.618-.293-1.863-.143-2.61.137-.685.4-1.597 1.214-1.694 1.27-.15 2.746.387 4.003.577 1.513.231 3.032.416 4.557.555 6.506.593 13.122.5 19.6-.367a81.68 81.68 0 003.53-.553c1.044-.187 2.202-.538 2.833.543.433.737.49 1.723.424 2.556-.02.362-.18.703-.443.953z"/></svg>