<?xml version="1.0" encoding="UTF-8" standalone="no"?>
<svg
   xmlns:dc="http://purl.org/dc/elements/1.1/"
   xmlns:cc="http://creativecommons.org/ns#"
   xmlns:rdf="http://www.w3.org/1999/02/22-rdf-syntax-ns#"
   xmlns:svg="http://www.w3.org/2000/svg"
   xmlns="http://www.w3.org/2000/svg"
   xmlns:sodipodi="http://sodipodi.sourceforge.net/DTD/sodipodi-0.dtd"
   xmlns:inkscape="http://www.inkscape.org/namespaces/inkscape"
   inkscape:version="1.0 (4035a4fb49, 2020-05-01)"
   sodipodi:docname="github.svg"
   id="svg6"
   version="1.1"
   viewBox="0 0 24 24"
   role="img">
  <metadata
     id="metadata12">
    <rdf:RDF>
      <cc:Work
         rdf:about="">
        <dc:format>image/svg+xml</dc:format>
        <dc:type
           rdf:resource="http://purl.org/dc/dcmitype/StillImage" />
      </cc:Work>
    </rdf:RDF>
  </metadata>
  <defs
     id="defs10" />
  <sodipodi:namedview
     inkscape:current-layer="svg6"
     inkscape:window-maximized="1"
     inkscape:window-y="-9"
     inkscape:window-x="-9"
     inkscape:cy="15.841236"
     inkscape:cx="12"
     inkscape:zoom="34.833333"
     showgrid="false"
     id="namedview8"
     inkscape:window-height="1001"
     inkscape:window-width="1920"
     inkscape:pageshadow="2"
     inkscape:pageopacity="0"
     guidetolerance="10"
     gridtolerance="10"
     objecttolerance="10"
     borderopacity="1"
     bordercolor="#666666"
     pagecolor="#ffffff" />
  <title
     id="title2">GitHub icon</title>
  <circle
     style="fill:#000000;stroke-width:1.19492;stroke-linecap:square;paint-order:markers stroke fill"
     id="path843"
     cx="12"
     cy="11.942584"
     r="11.985645" />
  <path
     style="fill:#ffffff;stroke-width:1.0049"
     d="M 11.999999,-0.13348927 C 5.3700001,-0.13348927 -3.5885167e-8,5.2922324 -3.5885167e-8,11.984259 -3.5885167e-8,17.339293 3.4380001,21.880419 8.2050001,23.480972 c 0.6,0.114109 0.82,-0.260532 0.82,-0.582662 0,-0.287797 -0.01,-1.050205 -0.015,-2.060017 -3.338,0.731104 -4.042,-1.625798 -4.042,-1.625798 -0.546,-1.39859 -1.335,-1.77222 -1.335,-1.77222 -1.087,-0.751301 0.084,-0.736154 0.084,-0.736154 1.205,0.08482 1.838,1.248128 1.838,1.248128 1.07,1.853005 2.809,1.317805 3.495,1.007792 0.1079998,-0.783614 0.4169998,-1.317805 0.7599998,-1.620748 -2.6649998,-0.302943 -5.4659998,-1.34507 -5.4659998,-5.988188 0,-1.322853 0.465,-2.4033525 1.235,-3.2515947 -0.135,-0.3059731 -0.54,-1.5379442 0.105,-3.2071636 0,0 1.005,-0.3251595 3.3,1.2420689 0.9599994,-0.26962 1.9799989,-0.4029148 2.9999989,-0.4089737 1.02,0.00606 2.04,0.1393537 3,0.4089737 2.28,-1.5672284 3.285,-1.2420689 3.285,-1.2420689 0.645,1.6692194 0.24,2.9011905 0.12,3.2071636 0.765,0.8482422 1.23,1.9287417 1.23,3.2515947 0,4.655235 -2.805,5.680195 -5.475,5.97809 0.42,0.363532 0.81,1.106754 0.81,2.241784 0,1.621758 -0.015,2.924416 -0.015,3.318243 0,0.318091 0.21,0.69677 0.825,0.575592 4.801,-1.589445 8.236,-6.1336 8.236,-11.480555 0,-6.6920266 -5.373,-12.11774827 -12,-12.11774827"
     id="path4" />
</svg>
