<svg xmlns="http://www.w3.org/2000/svg" viewBox="0 0 24 24"><circle cx="12" cy="11.943" r="11.986" paint-order="markers stroke fill"/><path d="M12-.133c-6.63 0-12 5.425-12 12.117 0 5.355 3.438 9.896 8.205 11.497.6.114.82-.26.82-.583 0-.287-.01-1.05-.015-2.06-3.338.731-4.042-1.626-4.042-1.626-.546-1.398-1.335-1.772-1.335-1.772-1.087-.751.084-.736.084-.736 1.205.085 1.838 1.248 1.838 1.248 1.07 1.853 2.809 1.318 3.495 1.008.108-.784.417-1.318.76-1.62-2.665-.304-5.466-1.346-5.466-5.989 0-1.323.465-2.403 1.235-3.251-.135-.306-.54-1.538.105-3.208 0 0 1.005-.325 3.3 1.242a11.4 11.4 0 013-.409 11.4 11.4 0 013 .41c2.28-1.568 3.285-1.243 3.285-1.243.645 1.67.24 2.902.12 3.208.765.848 1.23 1.928 1.23 3.251 0 4.655-2.805 5.68-5.475 5.978.42.364.81 1.107.81 2.242 0 1.622-.015 2.924-.015 3.318 0 .318.21.697.825.576C20.565 21.875 24 17.33 24 11.985 24 5.291 18.627-.134 12-.134" fill="#fff"/></svg>