<?xml version="1.0" encoding="UTF-8" standalone="no"?>
<svg
   viewBox="0 0 512.02 512.02"
   version="1.1"
   id="svg2"
   sodipodi:docname="linkedin.svg"
   inkscape:version="1.3 (0e150ed6c4, 2023-07-21)"
   xmlns:inkscape="http://www.inkscape.org/namespaces/inkscape"
   xmlns:sodipodi="http://sodipodi.sourceforge.net/DTD/sodipodi-0.dtd"
   xmlns="http://www.w3.org/2000/svg"
   xmlns:svg="http://www.w3.org/2000/svg">
  <defs
     id="defs2" />
  <sodipodi:namedview
     id="namedview2"
     pagecolor="#ffffff"
     bordercolor="#000000"
     borderopacity="0.25"
     inkscape:showpageshadow="2"
     inkscape:pageopacity="0.0"
     inkscape:pagecheckerboard="0"
     inkscape:deskcolor="#d1d1d1"
     inkscape:zoom="1.4960353"
     inkscape:cx="220.91725"
     inkscape:cy="256.01001"
     inkscape:window-width="1920"
     inkscape:window-height="991"
     inkscape:window-x="-9"
     inkscape:window-y="-9"
     inkscape:window-maximized="1"
     inkscape:current-layer="svg2" />
  <path
     d="M128.397 80.37c22.15 0 40.801 18.413 40.801 40.28 0 23.019-19.818 40.858-40.8 40.282-21.567.576-40.802-17.263-40.802-40.281-.583-22.443 18.07-40.282 40.801-40.282m22.733 328.008H104.5c-6.412 0-11.658-5.18-11.658-11.51V195.46c0-6.33 4.663-11.51 11.074-11.51h47.213c6.411 0 11.657 5.18 11.657 11.51v201.983c0 5.754-5.245 10.934-11.656 10.934m273.95-154.221c0-42.584-32.058-75.96-75.191-75.96h-12.24c-23.315 0-46.047 10.933-58.288 28.773l-5.829 5.754v-23.017c0-2.302-3.497-5.755-5.829-5.755h-58.287c-2.332 0-5.83 2.302-5.83 5.179v214.644c0 2.302 3.498 4.603 5.83 4.603h64.115c2.332 0 5.83-2.301 5.83-4.603V279.475c0-21.291 16.32-39.13 37.886-39.706 11.074 0 20.983 4.028 28.56 11.51 6.995 6.905 9.91 16.687 9.91 27.62v123.723c0 2.302 3.497 5.755 5.829 5.755h58.287c2.332 0 5.83-3.453 5.83-5.755V254.156z"
     paint-order="stroke fill markers"
     id="path2" />
</svg>
