<svg xmlns="http://www.w3.org/2000/svg" viewBox="0 0 512.02 512.02"><circle fill="#8A90C7" r="256" cx="256" cy="256"/><path d="M241.31 511.35c-33.715-2.903-56.131-8.104-83.672-19.411-14.464-5.939-28.124-13.315-43.413-23.443-40.761-27.002-73.127-65.628-92.674-110.6-12.418-28.572-19.6-59.722-20.829-90.34-1.332-33.218 2.795-62.654 13.055-93.107C44.945 81.937 126.109 15.21 222.937 2.492c76.718-10.077 154.928 15.757 210.322 69.473 42.634 41.341 68.264 92.347 76.478 152.197 1.179 8.587 1.345 12.527 1.345 31.848 0 19.321-.166 23.26-1.345 31.848-8.181 59.614-33.768 110.678-76.005 151.69-40.748 39.567-92.72 64.024-150.161 70.661-7.781.9-36.165 1.665-42.26 1.14z" fill="#fff" paint-order="markers stroke fill"/><path d="M128.397 80.37c22.15 0 40.801 18.413 40.801 40.28 0 23.019-19.818 40.858-40.8 40.282-21.567.576-40.802-17.263-40.802-40.281-.583-22.443 18.07-40.282 40.801-40.282m22.733 328.008H104.5c-6.412 0-11.658-5.18-11.658-11.51V195.46c0-6.33 4.663-11.51 11.074-11.51h47.213c6.411 0 11.657 5.18 11.657 11.51v201.983c0 5.754-5.245 10.934-11.656 10.934m273.95-154.221c0-42.584-32.058-75.96-75.191-75.96h-12.24c-23.315 0-46.047 10.933-58.288 28.773l-5.829 5.754v-23.017c0-2.302-3.497-5.755-5.829-5.755h-58.287c-2.332 0-5.83 2.302-5.83 5.179v214.644c0 2.302 3.498 4.603 5.83 4.603h64.115c2.332 0 5.83-2.301 5.83-4.603V279.475c0-21.291 16.32-39.13 37.886-39.706 11.074 0 20.983 4.028 28.56 11.51 6.995 6.905 9.91 16.687 9.91 27.62v123.723c0 2.302 3.497 5.755 5.829 5.755h58.287c2.332 0 5.83-3.453 5.83-5.755V254.156z" paint-order="stroke fill markers"/></svg>