<?xml version="1.0" encoding="UTF-8" standalone="no"?>
<svg
   xmlns:dc="http://purl.org/dc/elements/1.1/"
   xmlns:cc="http://creativecommons.org/ns#"
   xmlns:rdf="http://www.w3.org/1999/02/22-rdf-syntax-ns#"
   xmlns:svg="http://www.w3.org/2000/svg"
   xmlns="http://www.w3.org/2000/svg"
   xmlns:sodipodi="http://sodipodi.sourceforge.net/DTD/sodipodi-0.dtd"
   xmlns:inkscape="http://www.inkscape.org/namespaces/inkscape"
   inkscape:version="1.0 (4035a4fb49, 2020-05-01)"
   sodipodi:docname="location.svg"
   xml:space="preserve"
   style="enable-background:new 0 0 409.574 409.574;"
   viewBox="0 0 409.574 409.574"
   y="0px"
   x="0px"
   id="Capa_1"
   version="1.1"><metadata
   id="metadata53"><rdf:RDF><cc:Work
       rdf:about=""><dc:format>image/svg+xml</dc:format><dc:type
         rdf:resource="http://purl.org/dc/dcmitype/StillImage" /></cc:Work></rdf:RDF></metadata><defs
   id="defs51" /><sodipodi:namedview
   inkscape:current-layer="Capa_1"
   inkscape:window-maximized="1"
   inkscape:window-y="-9"
   inkscape:window-x="-9"
   inkscape:cy="83.28658"
   inkscape:cx="204.787"
   inkscape:zoom="2.0411452"
   showgrid="false"
   id="namedview49"
   inkscape:window-height="1001"
   inkscape:window-width="1920"
   inkscape:pageshadow="2"
   inkscape:pageopacity="0"
   guidetolerance="10"
   gridtolerance="10"
   objecttolerance="10"
   borderopacity="1"
   bordercolor="#666666"
   pagecolor="#ffffff" />
<ellipse
   id="ellipse2"
   ry="27.315"
   rx="121.876"
   cy="382.259"
   cx="204.787"
   style="fill:#000000" />
<path
   id="path4"
   d="M346.865,142.077c0,107.188-142.077,245.322-142.077,245.322S62.71,251.402,62.71,142.077  C62.71,63.61,126.32,0,204.787,0S346.865,63.61,346.865,142.077z"
   style="fill:#008000" />
<circle
   id="circle6"
   r="115.732"
   cy="142.08"
   cx="204.787"
   style="fill:#000000" />
<ellipse
   id="ellipse8"
   ry="111.15"
   rx="115.732"
   cy="146.662"
   cx="204.787"
   style="fill:#000000" />
<polygon
   id="polygon10"
   points="272.854,74.011 191.097,128.387 218.478,155.768 "
   style="fill:#ff0000" />
<polygon
   id="polygon12"
   points="191.097,128.387 136.721,210.144 218.478,155.768 "
   style="fill:#00ffff" />
<ellipse
   id="ellipse14"
   ry="14.454"
   rx="14.454"
   cy="142.069"
   cx="204.782"
   style="fill:#ffff00" />
<path
   id="path16"
   d="M216.306,142.026c-0.385,2.277-1.433,4.462-3.19,6.219c-4.5,4.5-11.797,4.5-16.297,0  c-2.237-2.237-3.357-5.166-3.37-8.098c-0.602,3.555,0.446,7.336,3.19,10.079c4.501,4.501,11.797,4.5,16.297,0  C215.199,147.963,216.319,144.992,216.306,142.026z"
   style="fill:#ffff00" />
<g
   id="g18">
</g>
<g
   id="g20">
</g>
<g
   id="g22">
</g>
<g
   id="g24">
</g>
<g
   id="g26">
</g>
<g
   id="g28">
</g>
<g
   id="g30">
</g>
<g
   id="g32">
</g>
<g
   id="g34">
</g>
<g
   id="g36">
</g>
<g
   id="g38">
</g>
<g
   id="g40">
</g>
<g
   id="g42">
</g>
<g
   id="g44">
</g>
<g
   id="g46">
</g>
</svg>
