<?xml version="1.0" encoding="UTF-8" standalone="no"?>
<svg
   xmlns:dc="http://purl.org/dc/elements/1.1/"
   xmlns:cc="http://creativecommons.org/ns#"
   xmlns:rdf="http://www.w3.org/1999/02/22-rdf-syntax-ns#"
   xmlns:svg="http://www.w3.org/2000/svg"
   xmlns="http://www.w3.org/2000/svg"
   xmlns:sodipodi="http://sodipodi.sourceforge.net/DTD/sodipodi-0.dtd"
   xmlns:inkscape="http://www.inkscape.org/namespaces/inkscape"
   aria-label="ProtonMail"
   role="img"
   viewBox="0 0 512 512"
   version="1.1"
   id="svg10"
   sodipodi:docname="protonmail.svg"
   inkscape:version="1.0 (4035a4fb49, 2020-05-01)">
  <metadata
     id="metadata16">
    <rdf:RDF>
      <cc:Work
         rdf:about="">
        <dc:format>image/svg+xml</dc:format>
        <dc:type
           rdf:resource="http://purl.org/dc/dcmitype/StillImage" />
      </cc:Work>
    </rdf:RDF>
  </metadata>
  <defs
     id="defs14" />
  <circle
     cy="256"
     cx="256"
     fill="#fff"
     id="circle2"
     r="256" />
  <g
     fill="#fff"
     id="g8"
     style="fill:#000000;fill-opacity:1;stroke:none;stroke-opacity:1;stroke-width:3;stroke-miterlimit:4;stroke-dasharray:none">
    <path
       d="M259 77s-108-6-131 114v79s0 12 23 29c28 17 91 68 108 68s74-51 102-69c23-16 23-28 23-28v-79C361 71 259 77 259 77zm68 159H185v-45c11-57 74-57 74-57s57 0 68 57v45z"
       id="path4"
       style="fill:#000000;fill-opacity:1;stroke:none;stroke-opacity:1;stroke-width:3;stroke-miterlimit:4;stroke-dasharray:none" />
    <path
       d="M259 384l-34-12-97-68v120s0 11 17 11h222c11 0 17-11 17-11V304l-97 69-28 11z"
       id="path6"
       style="fill:#000000;fill-opacity:1;stroke:none;stroke-opacity:1;stroke-width:3;stroke-miterlimit:4;stroke-dasharray:none" />
  </g>
</svg>
