<svg xmlns="http://www.w3.org/2000/svg" viewBox="0 0 24 24"><ellipse cx="12" cy="11.943" paint-order="markers stroke fill" rx="11.902" ry="11.756" fill="#121212"/><path stroke-width=".927" stroke="#121212" d="M12.057.688C5.9.688.911 5.704.911 11.894c0 4.953 3.194 9.153 7.621 10.634.557.105.762-.24.762-.54 0-.265-.01-.97-.014-1.905-3.1.676-3.754-1.504-3.754-1.504-.507-1.293-1.24-1.64-1.24-1.64-1.01-.693.078-.68.078-.68 1.12.079 1.707 1.155 1.707 1.155.994 1.714 2.61 1.219 3.246.932.1-.725.387-1.22.706-1.498-2.475-.281-5.077-1.245-5.077-5.54 0-1.223.432-2.222 1.147-3.006-.125-.283-.5-1.423.098-2.968 0 0 .933-.3 3.065 1.15a10.588 10.544 0 012.786-.38 10.588 10.544 0 012.787.38c2.117-1.45 3.05-1.15 3.05-1.15.6 1.545.224 2.685.112 2.968.71.784 1.143 1.783 1.143 3.006 0 4.306-2.606 5.254-5.086 5.53.39.336.753 1.023.753 2.073 0 1.5-.014 2.705-.014 3.07 0 .293.195.644.766.532a11.165 11.165 0 007.65-10.618c0-6.191-4.99-11.21-11.146-11.21" fill="#fff"/></svg>