<svg xmlns="http://www.w3.org/2000/svg" width="256" height="209" preserveAspectRatio="xMidYMid"><path d="M249.55 27.697a99.737 102.068 0 01-28.644 8.036c10.298-6.316 18.204-16.318 21.927-28.235a99.873 102.206 0 01-31.667 12.384c-9.097-9.918-22.057-16.116-36.402-16.116-27.541 0-49.871 22.85-49.871 51.033 0 4.001.441 7.896 1.291 11.632-41.446-2.13-78.193-22.447-102.79-53.323-4.292 7.537-6.75 16.305-6.75 25.656 0 17.707 8.804 33.327 22.185 42.48a49.671 50.832 0 01-22.59-6.385c-.002.214-.002.428-.002.643 0 24.726 17.19 45.354 40.003 50.042a49.937 51.104 0 01-22.52.875c6.345 20.275 24.763 35.03 46.584 35.443-17.067 13.687-38.57 21.846-61.935 21.846a99.16 99.16 0 01-11.896-.713c22.07 14.48 48.283 22.93 76.446 22.93 91.73 0 141.89-77.767 141.89-145.207 0-2.213-.048-4.414-.145-6.603a101.36 103.727 0 0024.885-26.418" fill="#53aaeb" style="mix-blend-mode:normal" stroke="#121212" stroke-width="2.882"/></svg>