<svg xmlns="http://www.w3.org/2000/svg" viewBox="-25.65 -42.75 98.8 171" width="533.333" height="533.333"><g transform="translate(-172.781 -128.15)"><path fill="#fff" d="M253.673 171.18c0-6.9-5.6-12.5-12.5-12.5-3.4 0-6.4 1.3-8.6 3.5-8.5-6.1-20.3-10.1-33.3-10.6l5.7-26.7 18.5 3.9c.2 4.7 4.1 8.5 8.9 8.5 4.9 0 8.9-4 8.9-8.9s-4-8.9-8.9-8.9c-3.5 0-6.5 2-7.9 5l-20.7-4.4c-.6-.1-1.2 0-1.7.3s-.8.8-1 1.4l-6.3 29.8c-13.3.4-25.2 4.3-33.8 10.6-2.2-2.1-5.3-3.5-8.6-3.5-6.9 0-12.5 5.6-12.5 12.5 0 5.1 3 9.4 7.4 11.4-.2 1.2-.3 2.5-.3 3.8 0 19.2 22.3 34.7 49.9 34.7 27.6 0 49.9-15.5 49.9-34.7 0-1.3-.1-2.5-.3-3.7 4.1-2 7.2-6.4 7.2-11.5zm-85.5 8.9c0-4.9 4-8.9 8.9-8.9s8.9 4 8.9 8.9-4 8.9-8.9 8.9-8.9-4-8.9-8.9zm49.7 23.5c-6.1 6.1-17.7 6.5-21.1 6.5-3.4 0-15.1-.5-21.1-6.5-.9-.9-.9-2.4 0-3.3.9-.9 2.4-.9 3.3 0 3.8 3.8 12 5.2 17.9 5.2 5.9 0 14-1.4 17.9-5.2.9-.9 2.4-.9 3.3 0 .7 1 .7 2.4-.2 3.3zm-1.6-14.6c-4.9 0-8.9-4-8.9-8.9s4-8.9 8.9-8.9 8.9 4 8.9 8.9-4 8.9-8.9 8.9z"/><rect fill="#fff" rx="32.044" height="59.035" width="64.088" y="142.433" x="162.171"/><path fill="#2962ff" d="M123.13 143.323c-15.534 15.518-15.534 40.678 0 56.197l45 44.957c15.534 15.518 40.719 15.518 56.252 0l45.002-44.957c15.533-15.519 15.533-40.679 0-56.197l-45.002-44.958c-15.533-15.518-40.718-15.518-56.251 0zm92.814 47.767c10.874-10.863 10.874-28.475 0-39.337-10.873-10.863-28.502-10.863-39.375 0-10.874 10.862-10.874 28.474 0 39.337 10.873 10.863 28.502 10.863 39.375 0z" clip-rule="evenodd" fill-rule="evenodd"/></g></svg>