<?xml version="1.0" encoding="UTF-8" standalone="no"?>
<svg
   xmlns:dc="http://purl.org/dc/elements/1.1/"
   xmlns:cc="http://creativecommons.org/ns#"
   xmlns:rdf="http://www.w3.org/1999/02/22-rdf-syntax-ns#"
   xmlns:svg="http://www.w3.org/2000/svg"
   xmlns="http://www.w3.org/2000/svg"
   xmlns:sodipodi="http://sodipodi.sourceforge.net/DTD/sodipodi-0.dtd"
   xmlns:inkscape="http://www.inkscape.org/namespaces/inkscape"
   inkscape:version="1.0 (4035a4fb49, 2020-05-01)"
   sodipodi:docname="icon.svg"
   version="1.1"
   height="2500"
   width="2500"
   viewBox="0 0 240 240"
   id="svg2">
  <metadata
     id="metadata23">
    <rdf:RDF>
      <cc:Work
         rdf:about="">
        <dc:format>image/svg+xml</dc:format>
        <dc:type
           rdf:resource="http://purl.org/dc/dcmitype/StillImage" />
      </cc:Work>
    </rdf:RDF>
  </metadata>
  <defs
     id="defs21" />
  <sodipodi:namedview
     inkscape:current-layer="svg2"
     inkscape:window-maximized="1"
     inkscape:window-y="-9"
     inkscape:window-x="-9"
     inkscape:cy="1250"
     inkscape:cx="1250"
     inkscape:zoom="0.3228"
     showgrid="false"
     id="namedview19"
     inkscape:window-height="1001"
     inkscape:window-width="1920"
     inkscape:pageshadow="2"
     inkscape:pageopacity="0"
     guidetolerance="10"
     gridtolerance="10"
     objecttolerance="10"
     borderopacity="1"
     bordercolor="#666666"
     pagecolor="#ffffff"
     inkscape:document-rotation="0" />
  <style
     id="style2">.st0{fill:url(#path2995-1-0_1_)}.st1{fill:#c8daea}.st2{fill:#a9c9dd}.st3{fill:url(#path2991_1_)}</style>
  <linearGradient
     gradientTransform="matrix(6 0 0 -6 4255 3247)"
     y2="511.512"
     x2="-693.305"
     y1="534.845"
     x1="-683.305"
     gradientUnits="userSpaceOnUse"
     id="path2995-1-0_1_">
    <stop
       id="stop4"
       stop-color="#37aee2"
       offset="0" />
    <stop
       id="stop6"
       stop-color="#1e96c8"
       offset="1" />
  </linearGradient>
  <path
     style="fill:#309ac7;fill-opacity:1;stroke:#121212;stroke-width:7.01064;stroke-miterlimit:4;stroke-dasharray:none;stroke-opacity:1"
     d="m 236.49468,120 c 0,64.36335 -52.1314,116.49468 -116.49468,116.49468 C 55.63672,236.49468 3.5053204,184.36335 3.5053204,120 3.5053204,55.63666 55.63672,3.5053204 120,3.5053204 184.36328,3.5053204 236.49468,55.63666 236.49468,120 Z"
     class="st0"
     id="path2995-1-0" />
  <path
     style="stroke-width:0.970789"
     d="m 98.64269,173.39335 c -3.78611,0 -3.10655,-1.45662 -4.46567,-5.04801 l -11.06698,-36.50167 68.73185,-42.908839 8.05755,2.13566 -6.69845,18.250839 z"
     class="st1"
     id="path2993" />
  <path
     style="stroke-width:0.970789"
     d="m 98.64269,173.39335 c 2.91231,0 4.17436,-1.35825 5.82468,-2.91234 2.52405,-2.427 34.9484,-33.97751 34.9484,-33.97751 l -19.90117,-4.854 -18.44497,11.6495 -2.42703,29.12368 z"
     class="st2"
     id="path2989" />
  <linearGradient
     gradientTransform="matrix(0.9707891,0,0,-0.970789,3.5053404,238.43617)"
     y2="78.245"
     x2="153.991"
     y1="118.245"
     x1="128.991"
     gradientUnits="userSpaceOnUse"
     id="path2991_1_">
    <stop
       id="stop12"
       stop-color="#eff7fc"
       offset="0" />
    <stop
       id="stop14"
       stop-color="#fff"
       offset="1" />
  </linearGradient>
  <path
     style="fill:url(#path2991_1_);stroke-width:0.970789"
     d="m 100.58424,143.68733 46.98616,34.65718 c 5.33937,2.91234 9.2225,1.45662 10.58162,-4.95116 l 19.12455,-90.089185 c 1.9416,-7.86334 -3.00947,-11.35817 -8.15465,-9.02834 L 56.89872,117.573 c -7.6692,3.10667 -7.57214,7.378 -1.35933,9.2225 l 28.8324,9.02833 66.69321,-42.035165 c 3.10649,-1.9415 6.0189,-0.87333 3.68902,1.26168 z"
     class="st3"
     id="path2991" />
</svg>
